<?xml version="1.0" encoding="utf-8"?>
<!-- Generator: Adobe Illustrator 16.0.0, SVG Export Plug-In . SVG Version: 6.00 Build 0)  -->
<!DOCTYPE svg PUBLIC "-//W3C//DTD SVG 1.1//EN" "http://www.w3.org/Graphics/SVG/1.1/DTD/svg11.dtd">
<svg version="1.1" id="Warstwa_1" xmlns="http://www.w3.org/2000/svg" xmlns:xlink="http://www.w3.org/1999/xlink" x="0px" y="0px"
	 width="500px" height="592.265px" viewBox="588.895 48 500 592.265" enable-background="new 588.895 48 500 592.265"
	 xml:space="preserve">
<path opacity="0.75" fill="#BCBEC0" enable-background="new    " d="M1078.436,604.3c0-13.19-103.225-23.882-230.557-23.882
	c-127.333,0-230.556,10.691-230.556,23.882c0,13.189,103.223,23.882,230.556,23.882C975.211,628.182,1078.436,617.49,1078.436,604.3
	"/>
<path fill="#8CC63F" stroke="#006031" stroke-width="0.2656" d="M943.327,240.85c65.344,51.345,93.029,140.926,62.229,222.838
	c-38.054,101.203-150.92,152.396-252.152,114.373C652.21,540.028,601.017,427.132,639.05,325.929
	c31.883-84.836,116.325-134.523,202.406-125.996l2.548-3.621c-2.376-7.768-2.782-42.97-4.784-43.637
	c-21.485-7.303-32.965-30.628-25.673-52.114c7.293-21.484,30.629-32.955,52.114-25.672c21.494,7.313,32.996,30.639,25.683,52.134
	c-4.421,12.968-14.688,22.284-26.836,26.036c-1.78,0.546-2.325,37.407-3.793,45.165l5.453,5.766
	c8.385,1.941,16.739,4.45,25.004,7.576c11.197,4.198,21.768,9.316,31.701,15.244l8.112-0.293
	c3.469-6.96,25.288-36.779,24.236-38.307c-7.202-10.338-9.56-23.852-5.199-36.698c7.313-21.485,30.639-32.976,52.124-25.672
	c21.484,7.303,32.975,30.629,25.672,52.103c-7.324,21.495-30.639,32.977-52.113,25.683c-2.064-0.698-25.44,26.644-32.501,31.844
	L943.327,240.85L943.327,240.85z"/>
<radialGradient id="SVGID_1_" cx="58.2266" cy="943.8149" r="2.3393" gradientTransform="matrix(18.835 6.4037 -6.4037 18.835 5811.1978 -18042.6816)" gradientUnits="userSpaceOnUse">
	<stop  offset="0" style="stop-color:#FFF200"/>
	<stop  offset="1" style="stop-color:#006E3A"/>
</radialGradient>
<path opacity="0.5" fill="url(#SVGID_1_)" enable-background="new    " d="M886.762,113.894
	c0.01-19.083-15.453-34.562-34.536-34.571c-19.083-0.009-34.562,15.452-34.572,34.536c0,0.012,0,0.024,0,0.035
	c0,19.083,15.471,34.554,34.555,34.554C871.292,148.448,886.762,132.977,886.762,113.894"/>
<radialGradient id="SVGID_2_" cx="65.5464" cy="944.0278" r="2.3395" gradientTransform="matrix(18.835 6.4037 -6.4037 18.835 5811.1978 -18042.6816)" gradientUnits="userSpaceOnUse">
	<stop  offset="0" style="stop-color:#FFF200"/>
	<stop  offset="1" style="stop-color:#006E3A"/>
</radialGradient>
<path opacity="0.41" fill="url(#SVGID_2_)" enable-background="new    " d="M1023.248,164.844c0-19.083-15.472-34.553-34.555-34.553
	c-19.084,0-34.553,15.47-34.553,34.553c0,19.083,15.469,34.554,34.553,34.554C1007.776,199.398,1023.248,183.927,1023.248,164.844"
	/>
<radialGradient id="SVGID_3_" cx="75.9932" cy="938.3813" r="1.5283" gradientTransform="matrix(19.7143 -2.6737 2.6737 19.7143 -3145.6265 -17845.0156)" gradientUnits="userSpaceOnUse">
	<stop  offset="0" style="stop-color:#565759"/>
	<stop  offset="1" style="stop-color:#000000"/>
</radialGradient>
<path fill="url(#SVGID_3_)" d="M769.334,451.267c9.73-1.336,30.366-2.975,36.414,4.814c4.33,5.583-0.92,4.795-5.502,4.239
	c-5.978-0.729-11.855-2.6-18.005-2.721c-10.407-0.213-19.461,3.084-29,6.706c-4.602,1.77-13.969,3.368-6.09-3.52
	C752.705,455.93,762.082,452.268,769.334,451.267z"/>
<radialGradient id="SVGID_4_" cx="-670.7134" cy="507.4712" r="1.3001" gradientTransform="matrix(-19.4935 3.9687 -3.9687 -19.4935 -10168.4922 12997.8633)" gradientUnits="userSpaceOnUse">
	<stop  offset="0" style="stop-color:#565759"/>
	<stop  offset="1" style="stop-color:#000000"/>
</radialGradient>
<path fill="url(#SVGID_4_)" d="M894.359,450.073c-4.987-1.679-10.156-2.701-14.91-3.004c-7.485-0.505-24.257-1.476-25.764,9.022
	c5.199,2.702,12.847-1.729,18.562-1.941c14.546-0.597,27.655,11.702,41.857,10.276c1.385-0.132-5.776-7.233-5.989-7.395
	C904.079,453.917,899.184,451.702,894.359,450.073L894.359,450.073z"/>
<radialGradient id="SVGID_5_" cx="68.5996" cy="1015.2153" r="1.8757" gradientTransform="matrix(18.6222 7.0005 -4.47 11.8922 4107.0591 -11994.6621)" gradientUnits="userSpaceOnUse">
	<stop  offset="0" style="stop-color:#143557"/>
	<stop  offset="0.1637" style="stop-color:#12395B"/>
	<stop  offset="0.3894" style="stop-color:#034366"/>
	<stop  offset="0.6511" style="stop-color:#005478"/>
	<stop  offset="0.9379" style="stop-color:#006C94"/>
	<stop  offset="1" style="stop-color:#00729A"/>
</radialGradient>
<path fill="url(#SVGID_5_)" d="M846.179,561.199c-7.708-1.942-14.039-7.586-12.826-16.215c1.123-8.061,4.238-15.062,12.533-17.621
	c5.119-1.587,11.105-0.324,15.688,2.287c7.131,4.036,9.721,14.273,6.706,21.576C864.336,560.835,856.294,563.769,846.179,561.199z"
	/>
<path fill="none" stroke="#1E3319" stroke-width="0.1678" d="M832.555,543.396c0.586-6.534,5.593-13.281,11.379-15.598
	c9.498-3.802,23.457,2.803,25.662,13.05c2.609,12.107-10.379,22.9-21.667,20.017c-6.453-1.639-13.483-6.352-15.132-13.361
	C832.494,546.178,832.423,544.792,832.555,543.396L832.555,543.396z"/>
<path fill="#185C00" d="M615.816,221.824c2.528,2.508,3.995,5.968,6.727,8.375c-6.767,7.06-2.66,26.906,1.72,34.25
	c3.439-9.043,8.052-19.32,16.73-24.499c-1.345,9.731,6.302,15.881,9.792,24.004c-11.784-5.797-28.202,15.648-28.687,25.763
	c-3.672-7.131-4.572-16.71-5.775-24.54c-1.406-9.124,0.485-18.066-0.071-26.765c-6.261,8.981-11.572,22.607-11.713,33.178
	c-1.76-4.714-0.88-20.646-7.991-20.656C599.207,249.093,615.017,221.024,615.816,221.824z"/>
<path fill="#185C00" d="M685.995,146.728c2.67,4.521,3.459,10.014,6.484,14.485c-12.321,7.556-13.878,37.477-10.358,49.615
	c8.295-11.632,18.734-24.61,33.087-28.768c-5.583,13.413,3.085,25.046,5.027,37.993c-14.687-12.725-46.196,11.815-50.657,26.087
	c-2.59-11.552-0.273-25.611,0.92-37.234c1.416-13.584,7.465-25.643,9.903-38.306c-12.301,10.499-25.015,27.999-29.162,43.05
	c-0.749-7.395,6.463-29.85-3.692-32.521C652.038,179.491,685.145,145.282,685.995,146.728z"/>
<path fill="#185C00" d="M784.174,82.314c2.033,6.777,1.284,14.242,3.792,21.07c-18.551,5.897-30.244,44.618-29.567,61.652
	c14.647-12.583,32.471-26.209,52.64-27.018c-11.652,15.759-4.056,33.814-5.685,51.385c-15.132-21.394-64.333,0.577-74.771,17.853
	c0.324-15.972,7.879-33.643,13.21-48.482c6.22-17.348,18.044-31.195,25.328-46.995c-19.523,9.801-41.786,28.616-52.084,47.005
	c1.386-9.933,18.096-37.021,5.645-43.788C729.116,114.278,783.516,80.14,784.174,82.314z"/>
</svg>
