<?xml version="1.0" encoding="utf-8"?>
<!-- Generator: Adobe Illustrator 16.0.0, SVG Export Plug-In . SVG Version: 6.00 Build 0)  -->
<!DOCTYPE svg PUBLIC "-//W3C//DTD SVG 1.1//EN" "http://www.w3.org/Graphics/SVG/1.1/DTD/svg11.dtd">
<svg version="1.1" id="Warstwa_1" xmlns="http://www.w3.org/2000/svg" xmlns:xlink="http://www.w3.org/1999/xlink" x="0px" y="0px"
	 width="452px" height="592px" viewBox="794.895 392.265 452 592" enable-background="new 794.895 392.265 452 592"
	 xml:space="preserve">
<path opacity="0.75" fill="#BCBEC0" enable-background="new    " d="M1234.423,949.246c0.021-13.913-95.147-25.195-212.563-25.198
	c-117.414-0.001-212.614,11.276-212.634,25.192c0,0.002,0,0.005,0,0.006c-0.021,13.916,95.146,25.197,212.563,25.201
	c117.414,0.001,212.614-11.275,212.634-25.19C1234.423,949.253,1234.423,949.25,1234.423,949.246"/>
<path fill="#A4DD4A" d="M1089.692,535.473c83.557,26.429,144.12,104.585,144.12,196.885c0,114.021-92.438,206.45-206.448,206.45
	c-114.014,0-206.451-92.438-206.451-206.45c0-95.565,64.913-175.96,153.061-199.48l1.178-4.512
	c-5.238-6.784-18.689-41.38-20.904-41.321c-23.914,0.762-43.918-18.009-44.678-41.923c-0.763-23.915,18.006-43.906,41.908-44.68
	c23.902-0.771,43.93,18.008,44.68,41.935c0.462,14.431-6.218,27.456-16.819,35.67c-1.545,1.187,11.583,37.792,13.012,45.992
	l7.534,3.657c8.998-1.2,18.17-1.81,27.478-1.81c12.611,0,24.966,1.13,36.94,3.299l7.912-3.299
	c0.833-8.168,11.307-45.695,9.702-46.813c-10.947-7.534-18.283-20.004-18.746-34.31c-0.751-23.914,18.02-43.918,41.923-44.679
	c23.902-0.762,43.92,18.009,44.68,41.911c0.761,23.902-18.008,43.916-41.921,44.679c-2.297,0.069-15.207,35.751-20.271,43.503
	L1089.692,535.473z"/>
<radialGradient id="SVGID_1_" cx="5.9404" cy="1132.8989" r="2.2484" gradientTransform="matrix(21.8288 -0.6945 -0.6945 -21.8288 1618.8625 25166.5313)" gradientUnits="userSpaceOnUse">
	<stop  offset="0" style="stop-color:#FFF200"/>
	<stop  offset="1" style="stop-color:#006E3A"/>
</radialGradient>
<path opacity="0.5" fill="url(#SVGID_1_)" enable-background="new    " d="M989.098,443.944c0-20.125-16.318-36.442-36.443-36.442
	c-20.127,0-36.442,16.317-36.442,36.442c0,20.127,16.315,36.443,36.442,36.443C972.78,480.387,989.098,464.071,989.098,443.944"/>
<radialGradient id="SVGID_2_" cx="12.9717" cy="1132.6909" r="2.2478" gradientTransform="matrix(21.8288 -0.6945 -0.6945 -21.8288 1618.8625 25166.5313)" gradientUnits="userSpaceOnUse">
	<stop  offset="0" style="stop-color:#FFF200"/>
	<stop  offset="1" style="stop-color:#006E3A"/>
</radialGradient>
<path opacity="0.41" fill="url(#SVGID_2_)" enable-background="new    " d="M1142.724,443.598
	c0.009-20.125-16.298-36.451-36.423-36.462c-20.127-0.011-36.452,16.296-36.463,36.424c0,0.013,0,0.025,0,0.038
	c0,20.128,16.315,36.442,36.442,36.442C1126.409,480.041,1142.724,463.726,1142.724,443.598"/>
<path fill="#C7E9EE" stroke="#FFFFFF" stroke-width="0.2113" d="M966.037,619.41c-4.419,6.104-7.82,12.1-9.714,16.956
	c-9.771,25.173-5.619,53.355-13.612,78.953c-4.166,13.336-9.448,22.933-3.898,36.95c6.437,16.243,24.19,23.532,35.599,8.213
	c10.094-13.532,4.085-23.914-1.915-36.961c-13.773-29.981-11.039-72.746,11.49-98.148c3.935-4.429,13.937-9.529,15.505-14.939
	C1007.692,582.331,970.5,613.272,966.037,619.41z"/>
<path fill="#C7E9EE" stroke="#FFFFFF" stroke-width="0.2113" d="M1175.452,634.417c-4.731-8.029-31.09-48.787-43.064-36.385
	c-8.652,8.951,10.268,24.029,16.127,29.303c35.635,32.046,39.119,76.008,19.577,117.262c-5.536,11.709-9.552,25.148,1.487,35.139
	c11.491,10.383,21.872,5.503,27.398-8.502C1210.533,736.856,1200.104,676.339,1175.452,634.417L1175.452,634.417z"/>
<radialGradient id="SVGID_3_" cx="13.2349" cy="1122.7231" r="2.7419" gradientTransform="matrix(21.8397 0 0 -21.8397 836.094 25153.123)" gradientUnits="userSpaceOnUse">
	<stop  offset="0" style="stop-color:#565759"/>
	<stop  offset="1" style="stop-color:#000000"/>
</radialGradient>
<path fill="url(#SVGID_3_)" d="M1004.302,574.742c14.062-8.468,47.77-7.153,37.053,17.974c-8.409,19.702-40.457,12.804-55.88,20.718
	c-13.671,7.014-24.573,18.678-35.808,28.91c-8.663-24.978,35.865-55.64,53.423-66.84L1004.302,574.742z"/>
<radialGradient id="SVGID_4_" cx="13.1763" cy="1122.354" r="2.5185" gradientTransform="matrix(21.8397 0 0 -21.8397 836.094 25153.123)" gradientUnits="userSpaceOnUse">
	<stop  offset="0" style="stop-color:#565759"/>
	<stop  offset="1" style="stop-color:#000000"/>
</radialGradient>
<path fill="url(#SVGID_4_)" d="M1112.706,569.815c14.676,0.024,37.39,18.607,45.799,26.22c14.04,12.737,26.719,30.389,24.63,50.333
	c-8.19-15.538-22.622-29.335-40.41-35.944c-11.272-4.178-26.672-3.069-36.756-9.91c-10.532-7.164-13.218-25.023,2.47-30.087
	C1109.764,570.01,1111.195,569.815,1112.706,569.815z"/>
<radialGradient id="SVGID_5_" cx="2.1729" cy="1103.3032" r="8.8483" gradientTransform="matrix(18.5375 11.5445 11.5445 -18.5375 -11813.291 21301.6621)" gradientUnits="userSpaceOnUse">
	<stop  offset="0" style="stop-color:#1E3319"/>
	<stop  offset="1" style="stop-color:#006E3A"/>
</radialGradient>
<path fill="url(#SVGID_5_)" stroke="#1E3319" stroke-width="0.2428" d="M978.496,777.717c23.868-7.269,52.223-9.863,62.896-10.232
	c27.329-0.944,58.268,5.515,84.156,13.59c9.146,2.859,78.582,45.925,44.517,52.05c-6.933,1.248-23.559-7.659-30.756-9.32
	c-21.295-4.914-44.99-11.086-66.782-6.254c-34.031,7.568-57.945,35.256-88.966,48.256c-22.023,9.229-46.825,9.863-55.362-15.861
	C915.462,811.553,946.022,787.604,978.496,777.717z"/>
<path fill="#1E3319" d="M1042.211,791.93c-8.606-3.784-27.389-2.122-35.982,0.865c-4.696,1.638-5.182,0.588-2.262,6.125
	c1.395,2.643,5.896,6.079,8.871,6.601c4.42,0.771,9.378-2.228,14.052-3.313c4.799-1.118,12.517-3.679,16.368,0.957
	c4.882,5.908-1.338,10.867-6.541,13.036c5.156,1.293,12.609-0.528,15.575-5.168c8.569,7.051,12.907,6.888,23.82,7.371
	c-5.329-2.895-12.78-6.067-17.892-11.582C1053.042,801.228,1049.65,795.171,1042.211,791.93L1042.211,791.93z"/>
</svg>
